HIERARCHY
ROOT SpineBase
{
  OFFSET 0.000000 0.000000 0.000000
  CHANNELS 6 Xposition Yposition Zposition Zrotation Xrotation Yrotation
  JOINT SpineMid
  {
    OFFSET 0.000000 24.810711 -0.000000
    CHANNELS 3 Zrotation Xrotation Yrotation
    JOINT SpineShoulder
    {
      OFFSET -0.127888 18.541768 -0.793533
      CHANNELS 3 Zrotation Xrotation Yrotation
      JOINT Neck
      {
        OFFSET 0.013621 6.174882 -0.487145
        CHANNELS 3 Zrotation Xrotation Yrotation
        JOINT Head
        {
          OFFSET 1.557176 14.822863 -2.638291
          CHANNELS 3 Zrotation Xrotation Yrotation
          End Site
          {
            OFFSET 0 0 0
          }
        }
      }
      JOINT ShoulderLeft
      {
        OFFSET -9.549876 -0.533904 -7.737167
        CHANNELS 3 Zrotation Xrotation Yrotation
        JOINT ElbowLeft
        {
          OFFSET -0.746053 -18.444463 -9.549897
          CHANNELS 3 Zrotation Xrotation Yrotation
          JOINT WristLeft
          {
            OFFSET 11.829509 -14.137948 -8.158639
            CHANNELS 3 Zrotation Xrotation Yrotation
            JOINT HandLeft
            {
              OFFSET 2.632524 -6.096692 -2.611538
              CHANNELS 3 Zrotation Xrotation Yrotation
              JOINT HandTipLeft
              {
                OFFSET 5.039616 -2.062039 -7.650715
                CHANNELS 3 Zrotation Xrotation Yrotation
                End Site
                {
                  OFFSET 0 0 0
                }
              }
              JOINT ThumbLeft
              {
                OFFSET -5.152322 -4.199022 2.036655
                CHANNELS 3 Zrotation Xrotation Yrotation
                End Site
                {
                  OFFSET 0 0 0
                }
              }
            }
          }
        }
      }
      JOINT ShoulderRight
      {
        OFFSET 14.834653 -1.812127 9.479997
        CHANNELS 3 Zrotation Xrotation Yrotation
        JOINT ElbowRight
        {
          OFFSET 8.743563 -24.646946 2.204594
          CHANNELS 3 Zrotation Xrotation Yrotation
          JOINT WristRight
          {
            OFFSET 12.133913 -14.251584 -18.703636
            CHANNELS 3 Zrotation Xrotation Yrotation
            JOINT HandRight
            {
              OFFSET 2.312232 -5.291034 -3.028726
              CHANNELS 3 Zrotation Xrotation Yrotation
              JOINT HandTipRight
              {
                OFFSET 2.787972 -4.625576 -2.103541
                CHANNELS 3 Zrotation Xrotation Yrotation
                End Site
                {
                  OFFSET 0 0 0
                }
              }
              JOINT ThumbRight
              {
                OFFSET -3.249132 -1.380994 -0.870748
                CHANNELS 3 Zrotation Xrotation Yrotation
                End Site
                {
                  OFFSET 0 0 0
                }
              }
            }
          }
        }
      }
    }
  }
  JOINT HipLeft
  {
    OFFSET -5.431234 1.865721 -6.110281
    CHANNELS 3 Zrotation Xrotation Yrotation
    JOINT KneeLeft
    {
      OFFSET 17.260971 -2.481169 -27.559631
      CHANNELS 3 Zrotation Xrotation Yrotation
      JOINT AnkleLeft
      {
        OFFSET 8.424499 -32.908001 -0.797531
        CHANNELS 3 Zrotation Xrotation Yrotation
        JOINT FootLeft
        {
          OFFSET 6.237536 -4.100324 -8.089955
          CHANNELS 3 Zrotation Xrotation Yrotation
          End Site
          {
            OFFSET 0 0 0
          }
        }
      }
    }
  }
  JOINT HipRight
  {
    OFFSET 5.989727 0.250010 0.747103
    CHANNELS 3 Zrotation Xrotation Yrotation
    JOINT KneeRight
    {
      OFFSET 32.834505 -1.126294 -7.848208
      CHANNELS 3 Zrotation Xrotation Yrotation
      JOINT AnkleRight
      {
        OFFSET 5.743499 -29.877307 -7.415201
        CHANNELS 3 Zrotation Xrotation Yrotation
        JOINT FootRight
        {
          OFFSET 6.049976 -2.684779 -10.511226
          CHANNELS 3 Zrotation Xrotation Yrotation
          End Site
          {
            OFFSET 0 0 0
          }
        }
      }
    }
  }
}
MOTION
Frames: 14
Frame Time: 0.033333
-34.870934 40.643626 328.657440 0.000000 -0.000000 -30.981489 -0.000000 0.000000 30.981489 -0.000000 0.000000 0.000000 -0.000000 0.000000 0.000000 0.000000 0.000000 0.000000 -0.000000 0.000000 0.000000 -0.000000 0.000000 0.000000 -0.000000 0.000000 0.000000 -0.000000 0.000000 0.000000 0.000000 0.000000 0.000000 0.000000 0.000000 0.000000 -0.000000 0.000000 0.000000 -0.000000 0.000000 0.000000 -0.000000 0.000000 0.000000 -0.000000 0.000000 0.000000 0.000000 0.000000 0.000000 0.000000 0.000000 0.000000 -0.000000 0.000000 30.981489 -0.000000 0.000000 0.000000 -0.000000 0.000000 0.000000 0.000000 0.000000 0.000000 -0.000000 0.000000 30.981489 -0.000000 0.000000 0.000000 -0.000000 0.000000 0.000000 0.000000 0.000000 0.000000
-34.823980 40.608777 328.776871 0.091879 -0.303851 -31.084553 -0.235566 0.212781 31.085234 -0.000000 0.000000 0.000000 -0.000000 0.000000 0.000000 0.000000 0.000000 0.000000 -0.000000 0.000000 0.000000 -0.000000 0.000000 0.000000 1.748853 1.578391 -0.090561 -4.350543 -5.339715 0.426162 0.000000 0.000000 0.000000 0.000000 0.000000 0.000000 -0.000000 0.000000 0.000000 0.687868 0.549108 -0.433595 -1.216143 -1.377155 0.368018 0.537722 0.819400 0.046155 0.000000 0.000000 0.000000 0.000000 0.000000 0.000000 -0.235566 0.212781 31.085234 -0.000000 0.000000 0.000000 1.112957 2.878645 2.025533 0.000000 0.000000 0.000000 -0.235566 0.212781 31.085234 -0.000000 0.000000 0.000000 1.935516 3.584971 0.380896 0.000000 0.000000 0.000000
-34.764153 40.574720 328.888170 0.202598 -0.565651 -31.175684 -0.466165 0.379076 31.178227 -0.000000 0.000000 0.000000 -0.000000 0.000000 0.000000 0.000000 0.000000 0.000000 -0.000000 0.000000 0.000000 -0.000000 0.000000 0.000000 3.358346 2.984049 -0.232150 -8.180219 -9.992889 0.366302 0.000000 0.000000 0.000000 0.000000 0.000000 0.000000 -0.000000 0.000000 0.000000 1.164431 0.982387 -0.688087 -2.022033 -2.447629 0.517567 0.221442 0.730114 -0.002780 0.000000 0.000000 0.000000 0.000000 0.000000 0.000000 -0.506454 -0.325526 31.598052 0.403511 0.579027 -0.421846 1.840615 4.965016 3.463883 0.000000 0.000000 0.000000 0.005863 0.878124 31.775163 -0.664058 -0.175665 -0.603133 3.586269 6.658262 0.590725 0.000000 0.000000 0.000000
-34.691453 40.541456 328.991338 0.332113 -0.785476 -31.254919 -0.691476 0.499136 31.260207 -0.000000 0.000000 0.000000 -0.038731 0.969849 -0.108613 0.000000 0.000000 0.000000 -0.000000 0.000000 0.000000 -0.000000 0.000000 0.000000 4.684390 4.080477 -0.398853 -11.138802 -13.473610 -0.052362 0.000000 0.000000 0.000000 0.000000 0.000000 0.000000 -0.000000 0.000000 0.000000 1.422883 1.301287 -0.756379 -2.432819 -3.215532 0.458032 0.599097 1.177230 -0.005356 0.000000 0.000000 0.000000 0.000000 0.000000 0.000000 -0.747595 -0.539119 31.879413 0.596036 0.851992 -0.623657 2.288933 6.374961 4.438530 0.000000 0.000000 0.000000 -0.220314 1.016029 32.166891 -0.674004 -0.186688 -0.914012 4.877619 9.047369 0.665834 0.000000 0.000000 0.000000
-34.605879 40.508983 329.086374 0.480379 -0.963409 -31.322210 -0.911233 0.573219 31.330807 0.368468 -0.839879 0.033603 -0.375275 2.006994 -0.152233 0.000000 0.000000 0.000000 0.422764 0.641448 -0.440353 -0.792202 0.192608 0.403256 5.585325 4.743048 -0.555143 -12.865430 -15.389317 -0.643943 0.000000 0.000000 0.000000 0.000000 0.000000 0.000000 -0.368015 0.840078 -0.028205 1.457966 1.505536 -0.633002 -2.449196 -3.681771 0.192345 1.015052 2.156740 0.337519 0.000000 0.000000 0.000000 0.000000 0.000000 0.000000 -0.980897 -0.787987 32.143381 1.270027 0.315969 -1.041141 1.996251 7.989780 5.210987 0.000000 0.000000 0.000000 -0.597647 0.949455 32.556433 -0.466757 -0.148360 -1.230397 5.749372 10.629353 0.648330 0.000000 0.000000 0.000000
-34.507432 40.477303 329.173279 0.647344 -1.099541 -31.377436 -1.125227 0.601586 31.389556 0.439306 -0.884078 0.039973 -0.393124 2.185553 -0.163408 0.000000 0.000000 0.000000 0.406250 0.564904 -0.469317 -0.847493 0.312584 0.427744 5.954727 4.887552 -0.668446 -13.085558 -15.499716 -1.250313 0.000000 0.000000 0.000000 0.000000 0.000000 0.000000 -0.438742 0.884358 -0.033198 1.265872 1.592806 -0.314082 -2.056822 -3.843639 -0.282924 2.027957 2.396003 -0.019223 0.000000 0.000000 0.000000 0.000000 0.000000 0.000000 -1.206548 -1.073052 32.390183 1.535953 0.449275 -1.268703 1.949933 8.378405 5.481640 0.000000 0.000000 0.000000 -1.124658 0.676199 32.941937 -0.041051 -0.062308 -1.552410 6.160912 11.333314 0.574006 0.000000 0.000000 0.000000
-34.381040 40.442544 329.272368 0.858730 -1.200828 -31.481628 -1.359486 0.575461 31.497455 0.513493 -0.868436 0.046290 -0.411466 2.169128 -0.160185 0.000000 0.000000 0.000000 0.475349 0.375388 -0.542416 -0.992748 0.484107 0.497370 5.692832 4.847257 -0.565049 -11.252648 -13.534510 -2.391323 0.000000 0.000000 0.000000 0.000000 0.000000 0.000000 -0.512850 0.868815 -0.038510 0.104404 1.119274 0.804006 0.000521 -3.352219 -1.875575 3.513589 3.210235 -0.211895 0.000000 0.000000 0.000000 0.000000 0.000000 0.000000 -1.448222 -1.730822 32.673458 1.975006 0.880569 -1.486256 2.403887 10.426494 6.815936 0.000000 0.000000 0.000000 -1.928682 0.083165 33.500129 1.217501 -0.610732 -2.253763 5.416062 11.470641 0.487230 0.000000 0.000000 0.000000
-34.226780 40.409502 329.367878 1.102261 -1.242716 -31.499755 -1.589178 0.483429 31.518414 0.554847 -0.701745 0.048696 -0.296262 1.903518 -0.128417 0.000000 0.000000 0.000000 0.244671 -0.038027 -0.431991 -0.804527 0.734163 0.390613 5.278075 2.274533 -1.346752 -8.164025 -7.775015 -1.531063 0.000000 0.000000 0.000000 0.000000 0.000000 0.000000 -0.554292 0.702184 -0.041901 0.222780 1.451152 0.923494 0.449342 -1.748189 -1.436674 4.734319 2.789114 -0.579026 0.000000 0.000000 0.000000 0.000000 0.000000 0.000000 -1.687165 -1.855930 32.875169 1.978924 0.946789 -1.654503 1.611107 7.302740 4.629757 0.000000 0.000000 0.000000 -2.637436 -0.493037 33.905669 1.948220 -0.594420 -2.682655 3.875510 8.722904 0.232881 0.000000 0.000000 0.000000
-34.078453 40.387622 329.435692 1.312387 -1.251698 -31.493536 -1.772962 0.381426 31.513774 0.593920 -0.549995 0.050901 -0.151585 1.692415 -0.095482 0.000000 0.000000 0.000000 -0.015411 -0.433710 -0.306920 -0.583370 0.981070 0.266127 4.006775 0.689528 -1.418246 -4.522592 -2.914715 -1.916848 0.000000 0.000000 0.000000 0.000000 0.000000 0.000000 -0.593458 0.550493 -0.045199 -0.406075 0.295316 0.785114 2.093562 -1.299517 -2.159405 1.080350 1.420996 0.343635 0.000000 0.000000 0.000000 0.000000 0.000000 0.000000 -1.879624 -1.381382 32.988149 1.553164 0.685535 -1.694756 0.670136 4.277644 2.960643 0.000000 0.000000 0.000000 -2.860607 -0.632455 34.013478 2.000828 -0.491281 -2.778218 1.352910 3.863162 -0.186883 0.000000 0.000000 0.000000
-33.956349 40.344818 329.501702 1.510312 -1.294332 -31.367058 -1.963279 0.318635 31.389579 -0.000000 0.000000 0.000000 0.544104 1.195293 -0.034485 0.000000 0.000000 0.000000 0.368338 -1.098142 -0.143494 -0.371155 1.097193 0.150578 2.675589 -0.416480 -1.305228 0.060039 2.140147 -4.219986 0.000000 0.000000 0.000000 0.000000 0.000000 0.000000 -0.000000 0.000000 0.000000 0.139748 1.221753 0.842674 2.160050 -0.883442 -1.953367 0.854258 1.843605 0.973093 0.000000 0.000000 0.000000 0.000000 0.000000 0.000000 -2.092397 -2.178332 33.220165 2.092319 0.971046 -2.152869 -2.240424 -1.221543 0.014266 0.000000 0.000000 0.000000 -4.508473 -2.201957 34.117990 3.520971 0.657197 -2.790456 3.919491 6.884346 -0.041890 0.000000 0.000000 0.000000
-33.864228 40.300106 329.421132 1.668373 -1.119369 -31.242995 -2.006928 0.091356 31.260894 -0.000000 0.000000 0.000000 0.603344 1.394646 -0.046599 0.000000 0.000000 0.000000 0.320060 -0.807183 -0.131306 -0.321941 0.806434 0.135826 1.942838 -0.541491 -1.051335 1.714152 3.583617 -4.526495 0.000000 0.000000 0.000000 0.000000 0.000000 0.000000 -0.000000 0.000000 0.000000 -1.827167 -0.544084 1.964975 4.634033 -1.639190 -4.472785 -0.740072 1.251238 1.084214 0.000000 0.000000 0.000000 0.000000 0.000000 0.000000 -2.141159 -1.499944 33.054354 1.416948 0.596624 -1.990223 -4.261929 -5.596889 -2.323188 0.000000 0.000000 0.000000 -4.331826 -2.190673 33.716190 3.200525 0.606048 -2.514831 3.091663 5.465734 0.057105 0.000000 0.000000 0.000000
-33.935098 40.291095 329.353991 1.571858 -0.948144 -31.456162 -1.835580 -0.011702 31.468982 -0.000000 0.000000 0.000000 0.600666 1.355687 -0.042733 0.000000 0.000000 0.000000 0.305266 -1.042731 -0.113648 -0.307384 1.042108 0.119221 1.466989 0.907304 -0.246067 0.944483 1.392364 -2.766837 0.000000 0.000000 0.000000 0.000000 0.000000 0.000000 -0.000000 0.000000 0.000000 -1.202009 0.184571 1.748429 3.338430 -1.819211 -3.627972 -0.093647 1.332389 0.816929 0.000000 0.000000 0.000000 0.000000 0.000000 0.000000 -1.975037 -0.239344 33.313772 0.241568 0.113641 -1.845336 -4.720766 -8.288801 -4.597757 0.000000 0.000000 0.000000 -3.532734 -1.664552 33.585162 2.328126 0.437449 -2.149899 1.759718 3.079070 0.002465 0.000000 0.000000 0.000000
-34.154176 40.317456 329.249001 1.281870 -0.823965 -31.694142 -1.523562 0.027465 31.703725 -0.000000 0.000000 0.000000 0.455089 1.357102 -0.067132 0.000000 0.000000 0.000000 -0.109968 -1.137802 0.102392 -0.881490 -0.079693 -0.549392 -0.749000 0.167837 0.761323 2.151005 0.689774 -2.679187 0.000000 0.000000 0.000000 0.000000 0.000000 0.000000 -0.926324 -0.531903 -0.276532 1.438999 2.677189 1.354342 0.390034 -6.179931 -3.433581 -1.199051 3.986429 2.433216 0.000000 0.000000 0.000000 0.000000 0.000000 0.000000 -1.640962 -0.658630 33.312153 0.901874 -0.294420 -1.825189 -3.265417 -4.363590 -2.441780 0.000000 0.000000 0.000000 -2.086450 -0.479921 33.239924 0.748911 0.115803 -1.539179 -0.000000 0.000000 0.000000 0.000000 0.000000 0.000000
-34.497140 40.347903 329.065936 0.821532 -0.725648 -31.868953 -1.080815 0.182447 31.875876 -0.000000 0.000000 0.000000 0.265353 1.600989 -0.125018 0.000000 0.000000 0.000000 -0.479810 -2.639752 0.348263 -1.298533 1.350511 -0.363572 2.144844 2.285722 0.294601 -1.524031 -3.932566 -3.705017 0.000000 0.000000 0.000000 0.000000 0.000000 0.000000 -0.810989 -0.650312 -0.308464 2.102609 2.567975 0.177708 2.960843 -1.461616 -2.019476 -1.719952 4.375568 3.758052 0.000000 0.000000 0.000000 0.000000 0.000000 0.000000 -1.161904 -0.317314 32.980721 0.629760 -0.733719 -1.394930 -2.439103 -1.757290 0.155043 0.000000 0.000000 0.000000 -0.053024 1.264270 32.511994 -1.448156 -0.359674 -0.653640 -2.179347 -4.017533 -0.731835 0.000000 0.000000 0.000000
